<svg xmlns="http://www.w3.org/2000/svg" xmlns:xlink="http://www.w3.org/1999/xlink" width="65" height="59" version="1.1" viewBox="0 0 65 59"><title>Group 66</title><desc>Created with Sketch.</desc><g id="Landing-page" fill="none" fill-rule="evenodd" stroke="none" stroke-width="1"><g id="how-it-works" transform="translate(-946.000000, -3323.000000)"><g id="Group-66" transform="translate(946.000000, 3319.000000)"><g id="Group-64" transform="translate(0.000000, 4.000000)"><path id="Shape" fill="#5A78F0" fill-rule="nonzero" d="M52.9657143,20.2405338 C51.6444925,20.2405338 49.1960639,20.9843468 47.6033131,22.474612 C45.7811636,24.1795151 44.8925813,26.7429402 44.8925813,28.2532686 C44.8925813,29.7459824 45.3296359,33.028108 47.1227674,34.939034 C48.7298088,36.6516453 51.6268642,37.0842478 52.9657143,37.0842478 L64.952381,37.0842478 L64.952381,20.2405338 L52.9657143,20.2405338 Z"/><path id="Path" fill="#CDF4EE" fill-rule="nonzero" d="M53.2466518,20.2405338 L64.952381,20.2405338 L64.952381,10.1343054 C64.4524906,10.1343054 12.8897569,10.1343054 12.8897569,10.1343054 C11.8273483,10.1343054 10.2078693,9.56899345 9.31090495,8.65238354 C8.41394063,7.73577364 8.07963462,6.28431827 7.87301587,5.68744574 C7.87301587,6.45619285 7.87301587,37.5950615 7.87301587,38.7686192 C7.87301587,43.4197301 11.6163966,47.1904762 16.234251,47.1904762 L64.952381,47.1904762 L64.952381,37.0842478 L53.2466518,37.0842478 C48.6364897,37.0842478 44.8854167,33.3059782 44.8854167,28.6623908 C44.8854167,24.0188034 48.6364897,20.2405338 53.2466518,20.2405338 Z"/><path id="Path" fill="#00C0A5" fill-rule="nonzero" d="M12.8737744,4.79616347e-14 C10.111911,4.79616347e-14 7.87301587,2.29815346 7.87301587,5.13311688 C7.87301587,7.9680803 10.111911,10.1673379 12.8737744,10.1673379 L58.1028571,10.1673379 L58.1028571,4.79616347e-14 L12.8737744,4.79616347e-14 Z"/><circle id="Oval" cx="52.393" cy="28.741" r="2.5" fill="#FFF" fill-rule="nonzero"/><g id="Group-60" transform="translate(0.000000, 25.539683)"><ellipse id="Oval" cx="13.957" cy="13.993" fill="#05C0A5" rx="13.957" ry="13.993"/><path id="Oval" fill="#CDF4EE" d="M13.95671,23.2324675 C19.1183808,23.2324675 23.3027417,19.0481066 23.3027417,13.8864358 C23.3027417,8.72476498 19.1183808,4.54040404 13.95671,4.54040404 C8.79503915,4.54040404 4.61067821,8.72476498 4.61067821,13.8864358 C4.61067821,19.0481066 8.79503915,23.2324675 13.95671,23.2324675 Z"/><path id="Rectangle" fill="#05C0A5" d="M21.1197342,23.5836238 L32.6634306,23.5214089 C34.1572068,23.5133582 35.3746781,24.7177766 35.3827289,26.2115529 C35.3827812,26.2212709 35.3827812,26.2309891 35.3827289,26.2407071 C35.3745653,27.7554157 34.148669,28.9813121 32.6339604,28.9894756 L21.090264,29.0516905 C19.5964878,29.0597413 18.3790165,27.8553228 18.3709657,26.3615466 C18.3709134,26.3518285 18.3709134,26.3421103 18.3709657,26.3323923 C18.3791293,24.8176837 19.6050256,23.5917874 21.1197342,23.5836238 Z" transform="translate(26.876847, 26.286550) rotate(45.000000) translate(-26.876847, -26.286550)"/></g></g></g></g></g></svg>